HIERARCHY
ROOT Reference
{
  OFFSET 0 0 0
  CHANNELS 6 Xposition Yposition Zposition Zrotation Xrotation Yrotation
  JOINT Hips
  {
    OFFSET 251.394 724.17 483.536
    CHANNELS 3 Zrotation Xrotation Yrotation
    JOINT RightUpLeg
    {
      OFFSET -0.450515 -23.4426 -1.37224
      CHANNELS 3 Zrotation Xrotation Yrotation
      JOINT RightLeg
      {
        OFFSET 112.821 0.0872427 -0.321027
        CHANNELS 3 Zrotation Xrotation Yrotation
        JOINT RightFoot
        {
          OFFSET 105.718 0.000193788 0.0213165
          CHANNELS 3 Zrotation Xrotation Yrotation
          JOINT RightToeBase
          {
            OFFSET 37.638 -0.000116272 0.00224792
            CHANNELS 3 Zrotation Xrotation Yrotation
            JOINT RightToeEnd
            {
              OFFSET 21.2112 0.114605 -0.000138184
              CHANNELS 3 Zrotation Xrotation Yrotation
              End Site
              {
                OFFSET 0 0 0
              }
            }
          }
        }
      }
    }
    JOINT LeftUpLeg
    {
      OFFSET -0.449508 23.4315 -1.37054
      CHANNELS 3 Zrotation Xrotation Yrotation
      JOINT LeftLeg
      {
        OFFSET 112.821 -0.0485242 -0.372458
        CHANNELS 3 Zrotation Xrotation Yrotation
        JOINT LeftFoot
        {
          OFFSET 105.716 0.00496094 -0.0229443
          CHANNELS 3 Zrotation Xrotation Yrotation
          JOINT LeftToeBase
          {
            OFFSET 37.639 0 0.00158905
            CHANNELS 3 Zrotation Xrotation Yrotation
            JOINT LeftToeEnd
            {
              OFFSET 21.2113 -0.125031 -0.00017438
              CHANNELS 3 Zrotation Xrotation Yrotation
              End Site
              {
                OFFSET 0 0 0
              }
            }
          }
        }
      }
    }
    JOINT Spine
    {
      OFFSET -5.01225 0.000463591 -9.60395
      CHANNELS 3 Zrotation Xrotation Yrotation
      JOINT Spine1
      {
        OFFSET 26.0222 -0.000271301 -0.000155029
        CHANNELS 3 Zrotation Xrotation Yrotation
        JOINT Spine2
        {
          OFFSET 27.173 -0.000155029 -0.000310058
          CHANNELS 3 Zrotation Xrotation Yrotation
          JOINT Spine3
          {
            OFFSET 36.3953 -0.000232544 7.75146e-005
            CHANNELS 3 Zrotation Xrotation Yrotation
            JOINT Neck
            {
              OFFSET 36.4331 0 -3.00261
              CHANNELS 3 Zrotation Xrotation Yrotation
              JOINT Head
              {
                OFFSET 23.0407 -0.000232544 -0.000310058
                CHANNELS 3 Zrotation Xrotation Yrotation
                End Site
                {
                  OFFSET 0 0 0
                }
              }
            }
            JOINT LeftShoulder
            {
              OFFSET 20.1317 6.74168 -12.6061
              CHANNELS 3 Zrotation Xrotation Yrotation
              JOINT LeftArm
              {
                OFFSET 34.2172 -5.81359e-005 7.75146e-005
                CHANNELS 3 Zrotation Xrotation Yrotation
                JOINT LeftForeArm
                {
                  OFFSET 65.4129 -0.0821605 0.0585235
                  CHANNELS 3 Zrotation Xrotation Yrotation
                  JOINT LeftHand
                  {
                    OFFSET 67.3883 0.0359667 0.0112396
                    CHANNELS 3 Zrotation Xrotation Yrotation
                    JOINT LeftHandThumb1
                    {
                      OFFSET 8.78386 2.85353 -6.05362
                      CHANNELS 3 Zrotation Xrotation Yrotation
                      JOINT LeftHandThumb2
                      {
                        OFFSET 8.25498 -0.000116272 -0.000174407
                        CHANNELS 3 Zrotation Xrotation Yrotation
                        JOINT LeftHandThumb3
                        {
                          OFFSET 7.24822 0.000310058 5.81358e-005
                          CHANNELS 3 Zrotation Xrotation Yrotation
                          JOINT LeftHandThumb4
                          {
                            OFFSET 7.0004 -3.87568e-005 -0.000310057
                            CHANNELS 3 Zrotation Xrotation Yrotation
                            End Site
                            {
                              OFFSET 0 0 0
                            }
                          }
                        }
                      }
                    }
                    JOINT LeftHandIndex1
                    {
                      OFFSET 24.0991 -1.01537 -5.40558
                      CHANNELS 3 Zrotation Xrotation Yrotation
                      JOINT LeftHandIndex2
                      {
                        OFFSET 7.26759 -0.000290679 -0.000465086
                        CHANNELS 3 Zrotation Xrotation Yrotation
                        JOINT LeftHandIndex3
                        {
                          OFFSET 7.13628 -1.93787e-005 0.000232543
                          CHANNELS 3 Zrotation Xrotation Yrotation
                          JOINT LeftHandIndex4
                          {
                            OFFSET 5.46699 9.68932e-005 -0.000387571
                            CHANNELS 3 Zrotation Xrotation Yrotation
                            End Site
                            {
                              OFFSET 0 0 0
                            }
                          }
                        }
                      }
                    }
                    JOINT LeftHandMiddle1
                    {
                      OFFSET 24.4604 -2.52837 0.918567
                      CHANNELS 3 Zrotation Xrotation Yrotation
                      JOINT LeftHandMiddle2
                      {
                        OFFSET 7.41627 -5.81359e-005 0.000116271
                        CHANNELS 3 Zrotation Xrotation Yrotation
                        JOINT LeftHandMiddle3
                        {
                          OFFSET 8.76829 3.87573e-005 -7.75142e-005
                          CHANNELS 3 Zrotation Xrotation Yrotation
                          JOINT LeftHandMiddle4
                          {
                            OFFSET 6.07588 -0.00013565 -5.81356e-005
                            CHANNELS 3 Zrotation Xrotation Yrotation
                            End Site
                            {
                              OFFSET 0 0 0
                            }
                          }
                        }
                      }
                    }
                    JOINT LeftHandRing1
                    {
                      OFFSET 22.465 -1.97467 6.3466
                      CHANNELS 3 Zrotation Xrotation Yrotation
                      JOINT LeftHandRing2
                      {
                        OFFSET 7.36666 -0.000232544 0.000387571
                        CHANNELS 3 Zrotation Xrotation Yrotation
                        JOINT LeftHandRing3
                        {
                          OFFSET 8.07624 -0.000465087 -0.000203475
                          CHANNELS 3 Zrotation Xrotation Yrotation
                          JOINT LeftHandRing4
                          {
                            OFFSET 6.04433 0.00013565 3.87571e-005
                            CHANNELS 3 Zrotation Xrotation Yrotation
                            End Site
                            {
                              OFFSET 0 0 0
                            }
                          }
                        }
                      }
                    }
                    JOINT LeftHandPinky1
                    {
                      OFFSET 19.5278 0.352933 10.4295
                      CHANNELS 3 Zrotation Xrotation Yrotation
                      JOINT LeftHandPinky2
                      {
                        OFFSET 6.16525 5.8136e-005 -0.000251921
                        CHANNELS 3 Zrotation Xrotation Yrotation
                        JOINT LeftHandPinky3
                        {
                          OFFSET 6.14448 -0.000329434 -0.00510625
                          CHANNELS 3 Zrotation Xrotation Yrotation
                          JOINT LeftHandPinky4
                          {
                            OFFSET 4.98555 0.000116272 0.000116271
                            CHANNELS 3 Zrotation Xrotation Yrotation
                            End Site
                            {
                              OFFSET 0 0 0
                            }
                          }
                        }
                      }
                    }
                  }
                }
              }
            }
            JOINT RightShoulder
            {
              OFFSET 20.1309 -6.74152 -12.6063
              CHANNELS 3 Zrotation Xrotation Yrotation
              JOINT RightArm
              {
                OFFSET 34.2171 7.75146e-005 7.75146e-005
                CHANNELS 3 Zrotation Xrotation Yrotation
                JOINT RightForeArm
                {
                  OFFSET 65.4492 0.242543 -0.176501
                  CHANNELS 3 Zrotation Xrotation Yrotation
                  JOINT RightHand
                  {
                    OFFSET 67.3888 -0.0867388 0.0597442
                    CHANNELS 3 Zrotation Xrotation Yrotation
                    JOINT RightHandThumb1
                    {
                      OFFSET 8.78307 -2.85357 -6.05302
                      CHANNELS 3 Zrotation Xrotation Yrotation
                      JOINT RightHandThumb2
                      {
                        OFFSET 8.25493 -7.75145e-005 0
                        CHANNELS 3 Zrotation Xrotation Yrotation
                        JOINT RightHandThumb3
                        {
                          OFFSET 7.24797 -0.000174408 0.000155029
                          CHANNELS 3 Zrotation Xrotation Yrotation
                          JOINT RightHandThumb4
                          {
                            OFFSET 7.00062 0 0
                            CHANNELS 3 Zrotation Xrotation Yrotation
                            End Site
                            {
                              OFFSET 0 0 0
                            }
                          }
                        }
                      }
                    }
                    JOINT RightHandIndex1
                    {
                      OFFSET 24.0991 1.01525 -5.40578
                      CHANNELS 3 Zrotation Xrotation Yrotation
                      JOINT RightHandIndex2
                      {
                        OFFSET 7.26773 7.75144e-005 0.000232543
                        CHANNELS 3 Zrotation Xrotation Yrotation
                        JOINT RightHandIndex3
                        {
                          OFFSET 7.13572 -0.000310058 3.87571e-005
                          CHANNELS 3 Zrotation Xrotation Yrotation
                          JOINT RightHandIndex4
                          {
                            OFFSET 5.46717 0 3.87572e-005
                            CHANNELS 3 Zrotation Xrotation Yrotation
                            End Site
                            {
                              OFFSET 0 0 0
                            }
                          }
                        }
                      }
                    }
                    JOINT RightHandMiddle1
                    {
                      OFFSET 24.4603 2.52899 0.918547
                      CHANNELS 3 Zrotation Xrotation Yrotation
                      JOINT RightHandMiddle2
                      {
                        OFFSET 7.41641 -0.000116272 -0.000116272
                        CHANNELS 3 Zrotation Xrotation Yrotation
                        JOINT RightHandMiddle3
                        {
                          OFFSET 8.76765 -3.87577e-005 0.000232543
                          CHANNELS 3 Zrotation Xrotation Yrotation
                          JOINT RightHandMiddle4
                          {
                            OFFSET 6.07609 -0.000193787 -0.000116271
                            CHANNELS 3 Zrotation Xrotation Yrotation
                            End Site
                            {
                              OFFSET 0 0 0
                            }
                          }
                        }
                      }
                    }
                    JOINT RightHandRing1
                    {
                      OFFSET 22.465 1.97571 6.34696
                      CHANNELS 3 Zrotation Xrotation Yrotation
                      JOINT RightHandRing2
                      {
                        OFFSET 7.36684 0.000193786 0.000155029
                        CHANNELS 3 Zrotation Xrotation Yrotation
                        JOINT RightHandRing3
                        {
                          OFFSET 8.07614 -0.000271301 0
                          CHANNELS 3 Zrotation Xrotation Yrotation
                          JOINT RightHandRing4
                          {
                            OFFSET 6.04468 0.000232543 0
                            CHANNELS 3 Zrotation Xrotation Yrotation
                            End Site
                            {
                              OFFSET 0 0 0
                            }
                          }
                        }
                      }
                    }
                    JOINT RightHandPinky1
                    {
                      OFFSET 19.5277 -0.352346 10.4296
                      CHANNELS 3 Zrotation Xrotation Yrotation
                      JOINT RightHandPinky2
                      {
                        OFFSET 6.16508 0 0.000232543
                        CHANNELS 3 Zrotation Xrotation Yrotation
                        JOINT RightHandPinky3
                        {
                          OFFSET 6.14396 -0.000155048 -0.0048834
                          CHANNELS 3 Zrotation Xrotation Yrotation
                          JOINT RightHandPinky4
                          {
                            OFFSET 4.98577 -7.75146e-005 -7.75143e-005
                            CHANNELS 3 Zrotation Xrotation Yrotation
                            End Site
                            {
                              OFFSET 0 0 0
                            }
                          }
                        }
                      }
                    }
                  }
                }
              }
            }
          }
        }
      }
    }
  }
}
MOTION
Frames:	4
Frame Time:	0.0333333
0 0 0 -90 -7.01671e-015 -180 -2.13346 -50.1557 -95.7821 -144.675 -40.5366 -55.9423 1.73068 -1.85772 -133.537 -0.725205 -26.7269 10.0131 30.889 -13.2305 33.9001 -8.95075e-006 -8.6534e-005 -86.4974 162.164 33.7669 -55.8634 -0.879266 0.857526 -134.209 9.75009 25.9031 3.97947 -28.203 8.51654 8.85892 2.16293e-006 -4.24129e-005 -86.4974 -0.0850809 0.252982 133.96 4.89593 0.911731 -9.93383 -0.750785 1.88432 -9.44884 0.375732 5.51891 -19.1322 -0.551758 -6.42337 -9.78163 -3.57976 -5.11416 40.904 103.19 24.4327 -14.8052 34.4853 14.4787 82.1625 -5.10509 -13.3271 91.5599 1.47971 -16.4268 -19.0105 -173.375 -50.1253 136.622 0.000343874 -1.875e-007 5.00949 0.000183009 0.00012221 25.7996 0.000257838 -0.00129476 -0.000133399 100.419 79.0802 -71.7819 0.000202042 -0.000955426 54.6253 0.00168321 -2.15285e-006 51.8874 -0.000600205 -0.000509095 -0.000460187 15.4718 85.6673 19.7588 0.000283942 -0.000296282 65.9843 0.00100113 -0.000171935 28.9976 -0.000552391 -0.000288847 9.27393e-005 16.1785 83.9647 32.3095 0.000563558 -0.00101164 38.6714 0.00162142 0.000819945 41.1953 -0.000649718 -0.000669584 0.000685577 20.9218 81.3853 5.33289 0.00148271 -0.000506163 45.7782 0.000446133 0.000206238 33.0153 -2.43144e-005 -6.53136e-005 -0.000421658 -81.1504 -26.4294 12.9856 -36.9957 13.1986 67.2187 9.84681 30.1989 107.639 30.5238 37.1795 -62.4427 173.375 50.1253 136.622 -5.95576e-005 2.38027e-005 5.00949 0.000163474 5.67925e-005 25.7996 -1.52588e-005 -0.000137329 -180 -100.42 -79.0802 -71.7826 -0.00022322 0.00016376 54.6253 0.000161031 -5.62311e-005 51.8874 -0.000106811 -3.05176e-005 180 -15.4715 -85.6674 19.7591 -8.78907e-005 1.65673e-005 65.9843 8.81002e-005 1.68509e-005 28.9975 -1.52588e-005 3.05176e-005 180 -16.1781 -83.9647 32.3099 -3.43951e-005 0.000152716 38.6713 8.79924e-005 -0.000398917 41.1952 1.52588e-005 -0.000228882 -180 -20.9215 -81.3853 5.33327 -0.000100793 0.000210385 45.7781 -2.92669e-005 -5.57191e-005 33.0153 1.52588e-005 7.01671e-015 180 
0 0 0 -90 -7.01671e-015 -180 -1.40136 -48.9687 -90.7327 -141.19 -37.9039 -53.8172 1.71038 -1.63172 -131.07 -1.61071 -26.4402 9.59799 30.485 -13.5735 33.6561 -7.99737e-006 -0.000160154 -86.4974 160.143 32.6218 -52.3259 -0.899103 0.824399 -132.498 9.02547 25.6943 4.68199 -27.6086 8.67866 8.66764 2.16467e-006 -8.85019e-005 -86.4974 -0.0912111 0.264743 132.239 4.63049 0.649057 -11.9727 -1.215 2.1148 -9.68722 0.576575 5.53019 -20.8263 -0.642406 -7.04278 -10.9138 -3.23281 -5.50716 41.2514 103.541 24.2019 -15.5496 35.2475 15.664 79.1005 -1.06646 -9.33681 97.1304 -0.16235 -14.2372 -20.4277 -173.375 -50.1253 136.622 0.00034388 -1.99496e-005 5.00949 0.000182689 0.000115357 25.7996 0.000257837 -0.00129476 -0.000133399 100.42 79.0802 -71.7825 0.000201039 -0.00100202 54.6253 0.00168343 -6.41993e-005 51.8874 -0.000600204 -0.00052398 -0.000460187 15.4718 85.6673 19.7588 0.00027546 -0.000164664 65.9843 0.00100216 -0.000188726 28.9976 -0.000552392 -0.000298506 9.27392e-005 16.1784 83.9647 32.3096 0.000559806 -0.00100953 38.6714 0.00162259 0.000812006 41.1953 -0.000649719 -0.000669584 0.000685576 20.9218 81.3853 5.33289 0.00148242 -0.000506103 45.7782 0.000439576 0.000210157 33.0153 -2.43443e-005 -6.53137e-005 -0.000421657 -82.5797 -26.3035 12.0908 -36.5089 10.6963 64.4595 6.38906 30.9917 114.328 28.9943 36.508 -63.2514 173.375 50.1254 136.622 -5.96112e-005 3.69079e-006 5.00949 0.000160516 -2.09009e-005 25.7996 -1.52588e-005 -0.000183106 -180 -100.42 -79.0802 -71.7828 -0.00022175 0.000155443 54.6253 0.00015972 -7.38826e-005 51.8874 -0.000106811 -3.05176e-005 180 -15.4717 -85.6674 19.7589 -8.95399e-005 2.76263e-006 65.9844 8.77014e-005 1.7405e-005 28.9975 -1.52588e-005 3.05176e-005 180 -16.1781 -83.9647 32.3099 -3.6686e-005 0.000125829 38.6713 8.64596e-005 -0.000231379 41.1953 1.52588e-005 -6.10353e-005 -180 -20.9215 -81.3853 5.33326 -0.000103917 0.000179643 45.7782 -2.87073e-005 -5.4848e-005 33.0153 1.52588e-005 -1.52588e-005 -180 
0 0 0 -90 -7.01671e-015 -180 -0.8261 -47.8435 -86.8059 -138.722 -35.763 -53.2543 1.68045 -1.37699 -128.125 -2.67248 -26.2743 8.81444 30.1957 -13.8196 33.4884 -6.14327e-006 -1.00224e-005 -86.4974 158.761 31.6582 -50.3376 -0.894871 0.760702 -130.416 8.22333 25.2366 5.46003 -27.3636 8.98015 8.59324 2.22092e-006 -0.000179507 -86.4974 -0.0978212 0.278327 130.812 4.39696 0.477167 -13.7363 -1.54643 2.32622 -9.97071 0.726591 5.48707 -22.1447 -0.721944 -7.66329 -11.8359 -2.81909 -5.92818 41.6299 104.047 23.9125 -16.4597 35.8999 16.6883 75.8534 1.92321 -4.62357 101.512 -1.92057 -12.5339 -21.0576 -173.375 -50.1254 136.622 0.000343908 -6.04936e-005 5.00949 0.000183199 0.000102976 25.7996 0.000257838 -0.00129476 -0.000133399 100.42 79.0802 -71.7825 0.000199393 -0.00109738 54.6253 0.00168275 5.18707e-005 51.8874 -0.000600204 -0.000554905 -0.000460188 15.4718 85.6673 19.7588 0.00026679 -0.000160765 65.9843 0.00100311 -0.000211766 28.9976 -0.000552391 -0.000317824 9.2739e-005 16.1784 83.9646 32.3097 0.000555326 -0.00101038 38.6714 0.00162374 0.000803663 41.1953 -0.000649718 -0.000669584 0.000685577 20.9218 81.3853 5.33295 0.00148203 -0.000508295 45.7782 0.000432906 0.000211134 33.0153 -2.43143e-005 -6.53136e-005 -0.000421658 -83.9622 -26.1873 11.2922 -36.0006 7.89791 61.2701 1.94317 30.3849 121.515 27.6189 34.6667 -63.0327 173.375 50.1253 136.622 -5.97638e-005 -3.59779e-005 5.00949 0.000156645 0.000145953 25.7996 -1.52588e-005 -0.0002594 -180 -100.42 -79.0802 -71.7833 -0.000232269 0.000132216 54.6253 0.000160608 -0.000105246 51.8874 -0.000106811 -4.57764e-005 180 -15.4719 -85.6675 19.7587 -9.01184e-005 -1.68883e-005 65.9844 8.71719e-005 1.54518e-005 28.9975 -1.52588e-005 1.52588e-005 180 -16.1781 -83.9647 32.31 -3.53187e-005 7.81078e-005 38.6713 8.43533e-005 -0.00023218 41.1953 1.52588e-005 -6.10353e-005 -180 -20.9215 -81.3853 5.33328 -0.000101078 0.000134613 45.7781 -2.90272e-005 -5.46301e-005 33.0153 1.52588e-005 -1.52588e-005 -180 
0 0 0 -90 -7.01671e-015 -180 -0.3894 -46.8265 -83.9927 -137.034 -34.217 -53.8874 1.61071 -1.1202 -124.905 -3.76782 -26.2268 7.75188 30.015 -13.9375 33.4159 -5.17108e-006 -1.30098e-005 -86.4974 157.938 30.9808 -49.6708 -0.8551 0.66782 -128.129 7.37556 24.5512 6.2254 -27.5375 9.38942 8.68557 7.83291e-006 4.66844e-006 -86.4974 -0.103216 0.292151 129.617 4.24348 0.386603 -15.2067 -1.77371 2.50645 -10.2442 0.80469 5.38322 -23.0313 -0.785405 -8.26157 -12.4431 -2.35267 -6.33717 41.9871 104.555 23.582 -17.4548 36.423 17.4868 72.5747 3.97151 0.269587 104.702 -3.6768 -11.3294 -20.8832 -173.375 -50.1255 136.622 0.000344008 -0.000140977 5.00948 0.000185889 7.86609e-005 25.7996 0.000257837 -0.00129476 -0.000133399 100.42 79.0802 -71.7825 0.000196389 -0.000904823 54.6252 0.00168407 4.96655e-005 51.8874 -0.000600204 -0.000615948 -0.000460188 15.4719 85.6673 19.7588 0.000257804 -0.000162679 65.9843 0.00100408 -0.000245485 28.9976 -0.000552391 -0.000356688 9.27386e-005 16.1783 83.9646 32.3098 0.000547512 -0.00101931 38.6714 0.0016251 0.000795758 41.1953 -0.000649718 -0.000669584 0.000685576 20.9218 81.3853 5.33297 0.00148198 -0.000513428 45.7781 0.000427844 0.000201939 33.0153 -2.43142e-005 -6.53134e-005 -0.000421657 -85.2997 -26.0895 10.5883 -35.4745 4.98842 57.7165 -2.75692 28.1344 128.397 26.4906 31.8143 -61.7089 173.375 50.1253 136.622 -6.08308e-005 -0.000116372 5.00949 0.000159791 0.000146968 25.7996 -1.52588e-005 -0.000106812 -180 -100.419 -79.0802 -71.7825 -0.000249616 9.37453e-005 54.6252 0.000143082 -0.000193674 51.8874 -0.000106811 -7.62941e-005 180 -15.4713 -85.6673 19.7593 -9.44378e-005 -6.48358e-005 65.9843 9.09408e-005 1.58441e-005 28.9975 -1.52588e-005 5.79056e-014 180 -16.1782 -83.9647 32.3099 -7.04452e-005 -4.79036e-005 38.6713 6.13917e-005 -0.000251255 41.1952 1.52588e-005 -6.10353e-005 -180 -20.9215 -81.3853 5.3332 -0.000131987 1.29885e-005 45.7781 -5.04792e-005 -6.82073e-005 33.0153 1.52588e-005 -3.05176e-005 -180 
